<svg xmlns="http://www.w3.org/2000/svg" xmlns:xlink="http://www.w3.org/1999/xlink" width="1600" zoomAndPan="magnify" viewBox="0 0 1200 225" height="300" preserveAspectRatio="xMidYMid meet" version="1.0"><defs><g/><clipPath id="5915b6a6ab"><rect x="0" width="1184" y="0" height="208"/></clipPath></defs><g transform="matrix(1, 0, 0, 1, 3, 17)"><g clip-path="url(#5915b6a6ab)"><g fill="#000000" fill-opacity="1"><g transform="translate(7.061746, 159.905352)"><g><path d="M 74.390625 -146.46875 L 74.390625 -41.359375 C 74.390625 -27.046875 70.453125 -16.128906 62.578125 -8.609375 C 54.710938 -1.097656 43.441406 2.65625 28.765625 2.65625 C 24.859375 2.65625 21.007812 2.179688 17.21875 1.234375 C 13.4375 0.296875 10.242188 -0.851562 7.640625 -2.21875 C 5.035156 -3.582031 2.695312 -4.972656 0.625 -6.390625 C -1.445312 -7.804688 -2.957031 -8.988281 -3.90625 -9.9375 L -5.5 -11.359375 L 5.140625 -39.234375 C 12.128906 -32.609375 18.460938 -29.296875 24.140625 -29.296875 C 29.234375 -29.296875 33.316406 -30.976562 36.390625 -34.34375 C 39.472656 -37.71875 41.015625 -42.898438 41.015625 -49.890625 L 41.015625 -146.46875 Z M 74.390625 -146.46875 "/></g></g></g><g fill="#000000" fill-opacity="1"><g transform="translate(84.819908, 159.905352)"><g><path d="M 40.296875 -91.078125 L 40.296875 -47.75 C 40.296875 -38.757812 41.65625 -32.367188 44.375 -28.578125 C 47.101562 -24.796875 51.722656 -22.90625 58.234375 -22.90625 C 64.742188 -22.90625 69.359375 -24.796875 72.078125 -28.578125 C 74.796875 -32.367188 76.15625 -38.757812 76.15625 -47.75 L 76.15625 -91.078125 L 107.578125 -91.078125 L 107.578125 -40.125 C 107.578125 -24.96875 103.640625 -14.046875 95.765625 -7.359375 C 87.898438 -0.679688 75.382812 2.65625 58.21875 2.65625 C 41.0625 2.65625 28.546875 -0.679688 20.671875 -7.359375 C 12.804688 -14.046875 8.875 -24.96875 8.875 -40.125 L 8.875 -91.078125 Z M 40.296875 -91.078125 "/></g></g></g><g fill="#000000" fill-opacity="1"><g transform="translate(195.776326, 159.905352)"><g><path d="M 50.234375 -93.734375 C 55.441406 -93.734375 60.59375 -93.140625 65.6875 -91.953125 C 70.78125 -90.773438 74.566406 -89.59375 77.046875 -88.40625 L 80.78125 -86.640625 L 70.484375 -66.046875 C 63.378906 -69.828125 56.628906 -71.71875 50.234375 -71.71875 C 46.691406 -71.71875 44.179688 -71.332031 42.703125 -70.5625 C 41.222656 -69.800781 40.484375 -68.351562 40.484375 -66.21875 C 40.484375 -65.75 40.539062 -65.273438 40.65625 -64.796875 C 40.769531 -64.328125 41.003906 -63.882812 41.359375 -63.46875 C 41.710938 -63.050781 42.035156 -62.691406 42.328125 -62.390625 C 42.628906 -62.097656 43.132812 -61.773438 43.84375 -61.421875 C 44.5625 -61.066406 45.125 -60.800781 45.53125 -60.625 C 45.945312 -60.445312 46.628906 -60.179688 47.578125 -59.828125 C 48.523438 -59.472656 49.234375 -59.207031 49.703125 -59.03125 C 50.179688 -58.851562 50.984375 -58.585938 52.109375 -58.234375 C 53.234375 -57.878906 54.085938 -57.640625 54.671875 -57.515625 C 58.347656 -56.453125 61.546875 -55.269531 64.265625 -53.96875 C 66.984375 -52.664062 69.851562 -50.890625 72.875 -48.640625 C 75.894531 -46.390625 78.234375 -43.546875 79.890625 -40.109375 C 81.546875 -36.679688 82.375 -32.78125 82.375 -28.40625 C 82.375 -7.695312 67.992188 2.65625 39.234375 2.65625 C 32.722656 2.65625 26.535156 1.648438 20.671875 -0.359375 C 14.816406 -2.367188 10.585938 -4.378906 7.984375 -6.390625 L 4.078125 -9.59375 L 16.859375 -31.0625 C 17.804688 -30.238281 19.050781 -29.265625 20.59375 -28.140625 C 22.132812 -27.015625 24.914062 -25.472656 28.9375 -23.515625 C 32.957031 -21.566406 36.445312 -20.59375 39.40625 -20.59375 C 45.914062 -20.59375 49.171875 -22.78125 49.171875 -27.15625 C 49.171875 -29.175781 48.34375 -30.742188 46.6875 -31.859375 C 45.03125 -32.984375 42.21875 -34.253906 38.25 -35.671875 C 34.289062 -37.097656 31.1875 -38.40625 28.9375 -39.59375 C 23.257812 -42.550781 18.757812 -45.894531 15.4375 -49.625 C 12.125 -53.351562 10.46875 -58.289062 10.46875 -64.4375 C 10.46875 -73.675781 14.046875 -80.867188 21.203125 -86.015625 C 28.367188 -91.160156 38.046875 -93.734375 50.234375 -93.734375 Z M 50.234375 -93.734375 "/></g></g></g><g fill="#000000" fill-opacity="1"><g transform="translate(277.617698, 159.905352)"><g><path d="M 15.984375 -91.078125 L 15.984375 -124.984375 L 47.40625 -124.984375 L 47.40625 -91.078125 L 66.578125 -91.078125 L 66.578125 -67.109375 L 47.40625 -67.109375 L 47.40625 -38.171875 C 47.40625 -29.765625 49.769531 -25.5625 54.5 -25.5625 C 55.6875 -25.5625 56.929688 -25.796875 58.234375 -26.265625 C 59.535156 -26.742188 60.539062 -27.21875 61.25 -27.6875 L 62.3125 -28.40625 L 70.125 -3.015625 C 63.375 0.765625 55.679688 2.65625 47.046875 2.65625 C 41.128906 2.65625 36.039062 1.625 31.78125 -0.4375 C 27.519531 -2.507812 24.289062 -5.289062 22.09375 -8.78125 C 19.90625 -12.28125 18.335938 -15.953125 17.390625 -19.796875 C 16.453125 -23.640625 15.984375 -27.753906 15.984375 -32.140625 L 15.984375 -67.109375 L 2.84375 -67.109375 L 2.84375 -91.078125 Z M 15.984375 -91.078125 "/></g></g></g><g fill="#000000" fill-opacity="1"><g transform="translate(342.238579, 159.905352)"><g/></g></g><g fill="#000000" fill-opacity="1"><g transform="translate(385.200698, 159.905352)"><g><path d="M 85.03125 -146.46875 L 144.15625 0 L 108.296875 0 L 97.46875 -29.296875 L 41.71875 -29.296875 L 30.890625 0 L -4.96875 0 L 54.140625 -146.46875 Z M 86.109375 -58.578125 L 69.765625 -101.1875 L 69.421875 -101.1875 L 53.078125 -58.578125 Z M 86.109375 -58.578125 "/></g></g></g><g fill="#000000" fill-opacity="1"><g transform="translate(518.881055, 159.905352)"><g><path d="M 59.125 -68 C 53.195312 -68 48.101562 -65.804688 43.84375 -61.421875 C 39.582031 -57.046875 37.453125 -51.78125 37.453125 -45.625 C 37.453125 -39.351562 39.582031 -34.023438 43.84375 -29.640625 C 48.101562 -25.265625 53.195312 -23.078125 59.125 -23.078125 C 61.957031 -23.078125 64.644531 -23.429688 67.1875 -24.140625 C 69.738281 -24.847656 71.601562 -25.5625 72.78125 -26.28125 L 74.390625 -27.34375 L 85.03125 -5.5 C 84.207031 -4.90625 83.054688 -4.164062 81.578125 -3.28125 C 80.097656 -2.394531 76.722656 -1.1875 71.453125 0.34375 C 66.191406 1.882812 60.539062 2.65625 54.5 2.65625 C 41.125 2.65625 29.375 -2.046875 19.25 -11.453125 C 9.132812 -20.859375 4.078125 -32.128906 4.078125 -45.265625 C 4.078125 -58.523438 9.132812 -69.914062 19.25 -79.4375 C 29.375 -88.96875 41.125 -93.734375 54.5 -93.734375 C 60.539062 -93.734375 66.101562 -93.019531 71.1875 -91.59375 C 76.28125 -90.175781 79.890625 -88.757812 82.015625 -87.34375 L 85.03125 -85.21875 L 74.390625 -63.734375 C 70.484375 -66.578125 65.394531 -68 59.125 -68 Z M 59.125 -68 "/></g></g></g><g fill="#000000" fill-opacity="1"><g transform="translate(600.544925, 159.905352)"><g><path d="M 19.25 -10.828125 C 9.132812 -19.828125 4.078125 -31.367188 4.078125 -45.453125 C 4.078125 -59.535156 9.34375 -71.101562 19.875 -80.15625 C 30.414062 -89.207031 43.4375 -93.734375 58.9375 -93.734375 C 74.207031 -93.734375 87.078125 -89.175781 97.546875 -80.0625 C 108.023438 -70.945312 113.265625 -59.40625 113.265625 -45.4375 C 113.265625 -31.476562 108.144531 -19.972656 97.90625 -10.921875 C 87.664062 -1.867188 74.675781 2.65625 58.9375 2.65625 C 42.601562 2.65625 29.375 -1.835938 19.25 -10.828125 Z M 43.578125 -60.890625 C 39.492188 -56.867188 37.453125 -51.71875 37.453125 -45.4375 C 37.453125 -39.164062 39.40625 -34.046875 43.3125 -30.078125 C 47.21875 -26.117188 52.367188 -24.140625 58.765625 -24.140625 C 64.921875 -24.140625 69.976562 -26.148438 73.9375 -30.171875 C 77.90625 -34.203125 79.890625 -39.296875 79.890625 -45.453125 C 79.890625 -51.722656 77.847656 -56.867188 73.765625 -60.890625 C 69.679688 -64.910156 64.679688 -66.921875 58.765625 -66.921875 C 52.722656 -66.921875 47.660156 -64.910156 43.578125 -60.890625 Z M 43.578125 -60.890625 "/></g></g></g><g fill="#000000" fill-opacity="1"><g transform="translate(712.388958, 159.905352)"><g><path d="M 40.296875 -91.078125 L 40.296875 -47.75 C 40.296875 -38.757812 41.65625 -32.367188 44.375 -28.578125 C 47.101562 -24.796875 51.722656 -22.90625 58.234375 -22.90625 C 64.742188 -22.90625 69.359375 -24.796875 72.078125 -28.578125 C 74.796875 -32.367188 76.15625 -38.757812 76.15625 -47.75 L 76.15625 -91.078125 L 107.578125 -91.078125 L 107.578125 -40.125 C 107.578125 -24.96875 103.640625 -14.046875 95.765625 -7.359375 C 87.898438 -0.679688 75.382812 2.65625 58.21875 2.65625 C 41.0625 2.65625 28.546875 -0.679688 20.671875 -7.359375 C 12.804688 -14.046875 8.875 -24.96875 8.875 -40.125 L 8.875 -91.078125 Z M 40.296875 -91.078125 "/></g></g></g><g fill="#000000" fill-opacity="1"><g transform="translate(823.345424, 159.905352)"><g><path d="M 50.234375 -93.734375 C 55.441406 -93.734375 60.59375 -93.140625 65.6875 -91.953125 C 70.78125 -90.773438 74.566406 -89.59375 77.046875 -88.40625 L 80.78125 -86.640625 L 70.484375 -66.046875 C 63.378906 -69.828125 56.628906 -71.71875 50.234375 -71.71875 C 46.691406 -71.71875 44.179688 -71.332031 42.703125 -70.5625 C 41.222656 -69.800781 40.484375 -68.351562 40.484375 -66.21875 C 40.484375 -65.75 40.539062 -65.273438 40.65625 -64.796875 C 40.769531 -64.328125 41.003906 -63.882812 41.359375 -63.46875 C 41.710938 -63.050781 42.035156 -62.691406 42.328125 -62.390625 C 42.628906 -62.097656 43.132812 -61.773438 43.84375 -61.421875 C 44.5625 -61.066406 45.125 -60.800781 45.53125 -60.625 C 45.945312 -60.445312 46.628906 -60.179688 47.578125 -59.828125 C 48.523438 -59.472656 49.234375 -59.207031 49.703125 -59.03125 C 50.179688 -58.851562 50.984375 -58.585938 52.109375 -58.234375 C 53.234375 -57.878906 54.085938 -57.640625 54.671875 -57.515625 C 58.347656 -56.453125 61.546875 -55.269531 64.265625 -53.96875 C 66.984375 -52.664062 69.851562 -50.890625 72.875 -48.640625 C 75.894531 -46.390625 78.234375 -43.546875 79.890625 -40.109375 C 81.546875 -36.679688 82.375 -32.78125 82.375 -28.40625 C 82.375 -7.695312 67.992188 2.65625 39.234375 2.65625 C 32.722656 2.65625 26.535156 1.648438 20.671875 -0.359375 C 14.816406 -2.367188 10.585938 -4.378906 7.984375 -6.390625 L 4.078125 -9.59375 L 16.859375 -31.0625 C 17.804688 -30.238281 19.050781 -29.265625 20.59375 -28.140625 C 22.132812 -27.015625 24.914062 -25.472656 28.9375 -23.515625 C 32.957031 -21.566406 36.445312 -20.59375 39.40625 -20.59375 C 45.914062 -20.59375 49.171875 -22.78125 49.171875 -27.15625 C 49.171875 -29.175781 48.34375 -30.742188 46.6875 -31.859375 C 45.03125 -32.984375 42.21875 -34.253906 38.25 -35.671875 C 34.289062 -37.097656 31.1875 -38.40625 28.9375 -39.59375 C 23.257812 -42.550781 18.757812 -45.894531 15.4375 -49.625 C 12.125 -53.351562 10.46875 -58.289062 10.46875 -64.4375 C 10.46875 -73.675781 14.046875 -80.867188 21.203125 -86.015625 C 28.367188 -91.160156 38.046875 -93.734375 50.234375 -93.734375 Z M 50.234375 -93.734375 "/></g></g></g><g fill="#000000" fill-opacity="1"><g transform="translate(905.18676, 159.905352)"><g><path d="M 15.984375 -91.078125 L 15.984375 -124.984375 L 47.40625 -124.984375 L 47.40625 -91.078125 L 66.578125 -91.078125 L 66.578125 -67.109375 L 47.40625 -67.109375 L 47.40625 -38.171875 C 47.40625 -29.765625 49.769531 -25.5625 54.5 -25.5625 C 55.6875 -25.5625 56.929688 -25.796875 58.234375 -26.265625 C 59.535156 -26.742188 60.539062 -27.21875 61.25 -27.6875 L 62.3125 -28.40625 L 70.125 -3.015625 C 63.375 0.765625 55.679688 2.65625 47.046875 2.65625 C 41.128906 2.65625 36.039062 1.625 31.78125 -0.4375 C 27.519531 -2.507812 24.289062 -5.289062 22.09375 -8.78125 C 19.90625 -12.28125 18.335938 -15.953125 17.390625 -19.796875 C 16.453125 -23.640625 15.984375 -27.753906 15.984375 -32.140625 L 15.984375 -67.109375 L 2.84375 -67.109375 L 2.84375 -91.078125 Z M 15.984375 -91.078125 "/></g></g></g><g fill="#000000" fill-opacity="1"><g transform="translate(969.807594, 159.905352)"><g><path d="M 13.671875 -141.84375 C 17.335938 -145.507812 21.710938 -147.34375 26.796875 -147.34375 C 31.890625 -147.34375 36.269531 -145.507812 39.9375 -141.84375 C 43.613281 -138.175781 45.453125 -133.796875 45.453125 -128.703125 C 45.453125 -123.617188 43.613281 -119.238281 39.9375 -115.5625 C 36.269531 -111.894531 31.890625 -110.0625 26.796875 -110.0625 C 21.710938 -110.0625 17.335938 -111.894531 13.671875 -115.5625 C 10.003906 -119.238281 8.171875 -123.617188 8.171875 -128.703125 C 8.171875 -133.796875 10.003906 -138.175781 13.671875 -141.84375 Z M 10.65625 -91.078125 L 10.65625 0 L 42.078125 0 L 42.078125 -91.078125 Z M 10.65625 -91.078125 "/></g></g></g><g fill="#000000" fill-opacity="1"><g transform="translate(1017.91817, 159.905352)"><g><path d="M 59.125 -68 C 53.195312 -68 48.101562 -65.804688 43.84375 -61.421875 C 39.582031 -57.046875 37.453125 -51.78125 37.453125 -45.625 C 37.453125 -39.351562 39.582031 -34.023438 43.84375 -29.640625 C 48.101562 -25.265625 53.195312 -23.078125 59.125 -23.078125 C 61.957031 -23.078125 64.644531 -23.429688 67.1875 -24.140625 C 69.738281 -24.847656 71.601562 -25.5625 72.78125 -26.28125 L 74.390625 -27.34375 L 85.03125 -5.5 C 84.207031 -4.90625 83.054688 -4.164062 81.578125 -3.28125 C 80.097656 -2.394531 76.722656 -1.1875 71.453125 0.34375 C 66.191406 1.882812 60.539062 2.65625 54.5 2.65625 C 41.125 2.65625 29.375 -2.046875 19.25 -11.453125 C 9.132812 -20.859375 4.078125 -32.128906 4.078125 -45.265625 C 4.078125 -58.523438 9.132812 -69.914062 19.25 -79.4375 C 29.375 -88.96875 41.125 -93.734375 54.5 -93.734375 C 60.539062 -93.734375 66.101562 -93.019531 71.1875 -91.59375 C 76.28125 -90.175781 79.890625 -88.757812 82.015625 -87.34375 L 85.03125 -85.21875 L 74.390625 -63.734375 C 70.484375 -66.578125 65.394531 -68 59.125 -68 Z M 59.125 -68 "/></g></g></g><g fill="#000000" fill-opacity="1"><g transform="translate(1099.581992, 159.905352)"><g><path d="M 50.234375 -93.734375 C 55.441406 -93.734375 60.59375 -93.140625 65.6875 -91.953125 C 70.78125 -90.773438 74.566406 -89.59375 77.046875 -88.40625 L 80.78125 -86.640625 L 70.484375 -66.046875 C 63.378906 -69.828125 56.628906 -71.71875 50.234375 -71.71875 C 46.691406 -71.71875 44.179688 -71.332031 42.703125 -70.5625 C 41.222656 -69.800781 40.484375 -68.351562 40.484375 -66.21875 C 40.484375 -65.75 40.539062 -65.273438 40.65625 -64.796875 C 40.769531 -64.328125 41.003906 -63.882812 41.359375 -63.46875 C 41.710938 -63.050781 42.035156 -62.691406 42.328125 -62.390625 C 42.628906 -62.097656 43.132812 -61.773438 43.84375 -61.421875 C 44.5625 -61.066406 45.125 -60.800781 45.53125 -60.625 C 45.945312 -60.445312 46.628906 -60.179688 47.578125 -59.828125 C 48.523438 -59.472656 49.234375 -59.207031 49.703125 -59.03125 C 50.179688 -58.851562 50.984375 -58.585938 52.109375 -58.234375 C 53.234375 -57.878906 54.085938 -57.640625 54.671875 -57.515625 C 58.347656 -56.453125 61.546875 -55.269531 64.265625 -53.96875 C 66.984375 -52.664062 69.851562 -50.890625 72.875 -48.640625 C 75.894531 -46.390625 78.234375 -43.546875 79.890625 -40.109375 C 81.546875 -36.679688 82.375 -32.78125 82.375 -28.40625 C 82.375 -7.695312 67.992188 2.65625 39.234375 2.65625 C 32.722656 2.65625 26.535156 1.648438 20.671875 -0.359375 C 14.816406 -2.367188 10.585938 -4.378906 7.984375 -6.390625 L 4.078125 -9.59375 L 16.859375 -31.0625 C 17.804688 -30.238281 19.050781 -29.265625 20.59375 -28.140625 C 22.132812 -27.015625 24.914062 -25.472656 28.9375 -23.515625 C 32.957031 -21.566406 36.445312 -20.59375 39.40625 -20.59375 C 45.914062 -20.59375 49.171875 -22.78125 49.171875 -27.15625 C 49.171875 -29.175781 48.34375 -30.742188 46.6875 -31.859375 C 45.03125 -32.984375 42.21875 -34.253906 38.25 -35.671875 C 34.289062 -37.097656 31.1875 -38.40625 28.9375 -39.59375 C 23.257812 -42.550781 18.757812 -45.894531 15.4375 -49.625 C 12.125 -53.351562 10.46875 -58.289062 10.46875 -64.4375 C 10.46875 -73.675781 14.046875 -80.867188 21.203125 -86.015625 C 28.367188 -91.160156 38.046875 -93.734375 50.234375 -93.734375 Z M 50.234375 -93.734375 "/></g></g></g></g></g></svg>